<?xml version="1.0" encoding="UTF-8"?>
<svg width="361px" height="361px" viewBox="0 0 361 361" version="1.1" xmlns="http://www.w3.org/2000/svg" xmlns:xlink="http://www.w3.org/1999/xlink">
    <title>Rimdian icon</title>
    <g stroke="none" stroke-width="1" fill="none" fill-rule="evenodd">
        <g transform="translate(68.000000, 29.000000)" fill="#4E6CFF">
            <path d="M20.0893628,294 L4.20365898,291.335975 C13.8972054,263.997971 24.4157564,243.599795 35.759312,230.141446 C8.4108739,166.340529 -3.25066284,132.368731 0.774701765,128.226052 C4.80006637,124.083374 10.5017178,120.008023 17.879656,116 C35.7984323,170.220018 48.1718803,206.85737 55,225.912058 C40.7591683,250.60389 29.1222892,273.29987 20.0893628,294 Z"></path>
            <path d="M30,102.880345 L63.580817,209 L74,191.265718 C69.7875085,165.585733 65.9113307,147.257089 62.3714664,136.279785 C57.0616701,119.81383 53.567225,88.5169457 53.567225,87.1069275 C53.567225,86.1669154 45.7114833,91.4247212 30,102.880345 Z"></path>
            <path d="M85.7035061,171.138454 C75.234502,119.473808 70,88.3177125 70,77.6701664 L98.5618478,61.9324265 L95.462367,70.6601375 C155.286055,34.9795232 198.465266,11.426144 225,0 L204.506339,100.894098 C173.238495,117.485471 152.740595,130.472341 143.012641,139.85471 C170.189171,131.968097 188.017101,126.365194 196.496433,123.046001 L180.869752,176.393724 C127.969474,198.071583 95.3065982,210.607008 82.8811242,214 L77.2421885,214 L146.174641,94.9137251 L143.012641,94.0366108 L85.7035061,171.138454 Z"></path>
            <polygon points="111 221 168.324927 216.800661 174 197"></polygon>
            <path d="M53,264 C110.298712,259.995813 144.174551,256.790582 154.627518,254.384308 L160,234 C109.512576,237.705399 78.5611317,239.136176 67.1456658,238.29233 L53,264 Z"></path>
        </g>
    </g>
</svg>