<?xml version="1.0" encoding="UTF-8"?>
<svg width="533px" height="128px" viewBox="0 0 533 128" version="1.1" xmlns="http://www.w3.org/2000/svg" xmlnsXlink="http://www.w3.org/1999/xlink">
    <title>Artboard</title>
    <g id="Artboard" stroke="none" stroke-width="1" fill="none" fill-rule="evenodd">
        <path d="M7.80203171,50 C10.1387749,57.1004905 12.2594036,63.5128558 14.1639178,69.2370958 L14.5995847,70.545859 C14.6715564,70.7619503 14.7432085,70.9770237 14.8145409,71.1910792 L15.4479004,73.090094 C15.5173146,73.2980418 15.5864091,73.5049717 15.6551839,73.7108837 L16.0639963,74.9341402 C19.5737891,85.4298314 22.2191236,93.1730217 24,98.1637109 C17.7858189,108.983727 12.707908,118.929157 8.7662674,128 L1.83432392,126.832618 C6.0642351,114.853044 10.6541483,105.914517 15.6040634,100.017038 C3.67019952,72.0593327 -1.41847106,57.1728146 0.338051679,55.3574836 C2.09457442,53.5421527 4.58256776,51.7563248 7.80203171,50 Z M69,102 L66.6401245,110.8332 C66.5023798,110.864482 66.3553754,110.896075 66.1991113,110.92798 L65.8742369,110.992205 C60.5349089,112.015678 45.9101633,113.35161 22,115 L28.2135167,103.86001 C29.0951466,103.924303 30.2420577,103.958124 31.65425,103.961475 L32.1962571,103.961303 C38.9419707,103.941835 51.209885,103.288067 69,102 Z M76,86 L73.4777452,94.2502754 L48,96 L76,86 Z M97,0 L88.1414498,43.8465005 C74.6256718,51.05677 65.7652895,56.700597 61.5603027,60.7779816 C73.307577,57.3506215 81.0138438,54.915715 84.6791033,53.4732622 L77.9243443,76.6570858 C55.0577727,86.0778375 40.9389812,91.5254756 35.5679698,93 L33.1304944,93 L62.9271028,41.2475534 L61.5603027,40.8663776 L36.7879671,74.3732532 C32.2626557,51.9208606 30,38.381062 30,33.7538573 L42.346089,26.9145592 L41.0063135,30.7074429 C48.8140645,26.0256611 55.9659232,21.8243317 62.4618894,18.1034545 L64.0083282,17.2196687 C73.211402,11.9723019 81.0544173,7.72120102 87.5373742,4.46636615 L88.4996173,3.98561292 C91.6730928,2.40800878 94.5065537,1.07947114 97,0 Z M23.1767562,38.0464521 C23.1767562,38.659001 24.6857212,52.2551884 26.9785878,59.4084314 C28.5071655,64.17726 30.1809696,72.1397038 32,83.2957627 L27.5008073,91 L13,44.8988384 C19.7845042,39.9222149 23.1767562,37.6380862 23.1767562,38.0464521 Z M181.9,111 L162.85,111 L137.05,70.5 L136.9,111 L121.45,111 L121.45,19.95 L145.6,19.95 C165.9,19.95 176.05,29.1 176.05,47.4 C176.05,54.3 174.275,60.05 170.725,64.65 C167.175,69.25 162.35,71.9 156.25,72.6 L181.9,111 Z M136.9,64.2 L141.55,64.2 C154.25,64.2 160.6,58.75 160.6,47.85 C160.6,37.35 154.3,32.1 141.7,32.1 L136.9,32.1 L136.9,64.2 Z M205.745452,26.85 C205.745452,29.15 204.895452,31.15 203.195452,32.85 C201.495452,34.55 199.495452,35.4 197.195452,35.4 C194.895452,35.4 192.895452,34.55 191.195452,32.85 C189.495452,31.15 188.645452,29.15 188.645452,26.85 C188.645452,24.55 189.495452,22.55 191.195452,20.85 C192.895452,19.15 194.895452,18.3 197.195452,18.3 C199.495452,18.3 201.495452,19.15 203.195452,20.85 C204.895452,22.55 205.745452,24.55 205.745452,26.85 Z M204.545452,111 L189.995452,111 L189.995452,51.75 L204.545452,51.75 L204.545452,111 Z M232.590905,57 C236.290905,52.2 241.990905,49.8 249.690905,49.8 C256.390905,49.8 261.690905,52.9 265.590905,59.1 C269.390905,52.9 275.540905,49.8 284.040905,49.8 C296.540905,49.8 302.790905,57.9 302.790905,74.1 L302.790905,111 L288.390905,111 L288.390905,79.8 C288.390905,67.2 284.940905,60.9 278.040905,60.9 C271.140905,60.9 267.690905,67.9 267.690905,81.9 L267.690905,111 L253.140905,111 L253.140905,81 C253.140905,67.6 250.090905,60.9 243.990905,60.9 C236.390905,60.9 232.590905,67.9 232.590905,81.9 L232.590905,111 L218.040905,111 L218.040905,51.75 L232.590905,51.75 L232.590905,57 Z M356.186357,105.45 C352.286357,110.45 346.136357,112.95 337.736357,112.95 C329.336357,112.95 322.661357,109.75 317.711357,103.35 C312.761357,96.95 310.286357,89.45 310.286357,80.85 C310.286357,72.25 312.811357,64.925 317.861357,58.875 C322.911357,52.825 329.386357,49.8 337.286357,49.8 C345.686357,49.8 351.886357,52.25 355.886357,57.15 L356.186357,8.55 L370.736357,8.55 L370.736357,111 L356.186357,111 L356.186357,105.45 Z M357.836357,81.3 C357.836357,76.1 356.236357,71.65 353.036357,67.95 C349.836357,64.25 345.986357,62.4 341.486357,62.4 C336.986357,62.4 333.111357,64.225 329.861357,67.875 C326.611357,71.525 324.986357,76.025 324.986357,81.375 C324.986357,86.725 326.561357,91.225 329.711357,94.875 C332.861357,98.525 336.836357,100.35 341.636357,100.35 C346.436357,100.35 350.336357,98.575 353.336357,95.025 C356.336357,91.475 357.836357,86.9 357.836357,81.3 Z M400.131809,26.85 C400.131809,29.15 399.281809,31.15 397.581809,32.85 C395.881809,34.55 393.881809,35.4 391.581809,35.4 C389.281809,35.4 387.281809,34.55 385.581809,32.85 C383.881809,31.15 383.031809,29.15 383.031809,26.85 C383.031809,24.55 383.881809,22.55 385.581809,20.85 C387.281809,19.15 389.281809,18.3 391.581809,18.3 C393.881809,18.3 395.881809,19.15 397.581809,20.85 C399.281809,22.55 400.131809,24.55 400.131809,26.85 Z M398.931809,111 L384.381809,111 L384.381809,51.75 L398.931809,51.75 L398.931809,111 Z M468.527261,111 L454.277261,111 L454.277261,105.6 C450.077261,110.5 443.827261,112.95 435.527261,112.95 C427.227261,112.95 420.602261,109.75 415.652261,103.35 C410.702261,96.95 408.227261,89.45 408.227261,80.85 C408.227261,72.25 410.752261,64.925 415.802261,58.875 C420.852261,52.825 427.327261,49.8 435.227261,49.8 C443.627261,49.8 449.977261,52.3 454.277261,57.3 L454.277261,51.75 L468.527261,51.75 L468.527261,111 Z M455.927261,81.3 C455.927261,75.8 454.377261,71.275 451.277261,67.725 C448.177261,64.175 444.202261,62.4 439.352261,62.4 C434.502261,62.4 430.552261,64.125 427.502261,67.575 C424.452261,71.025 422.927261,75.6 422.927261,81.3 C422.927261,87 424.477261,91.6 427.577261,95.1 C430.677261,98.6 434.677261,100.35 439.577261,100.35 C444.477261,100.35 448.427261,98.65 451.427261,95.25 C454.427261,91.85 455.927261,87.2 455.927261,81.3 Z M494.772714,57.15 C498.872714,52.25 504.922714,49.8 512.922714,49.8 C526.522714,49.8 533.322714,58.15 533.322714,74.85 L533.322714,111 L518.922714,111 L518.922714,79.65 C518.922714,67.15 515.072714,60.9 507.372714,60.9 C498.972714,60.9 494.772714,67.6 494.772714,81 L494.772714,111 L480.222714,111 L480.222714,51.75 L494.772714,51.75 L494.772714,57.15 Z" id="Combined-Shape" fill="#4E6CFF"></path>
    </g>
</svg>